<?xml version="1.0" encoding="UTF-8"?>
<svg width="16px" height="16px" viewBox="0 0 16 16" version="1.1" xmlns="http://www.w3.org/2000/svg" xmlns:xlink="http://www.w3.org/1999/xlink">
    <title>分享小</title>
    <g id="页面-1" stroke="none" stroke-width="1" fill="none" fill-rule="evenodd">
        <g id="榆林市农业农村局-职能介绍" transform="translate(-1441.000000, -284.000000)" fill-rule="nonzero">
            <g id="编组-26" transform="translate(1429.000000, 279.000000)">
                <g id="分享小" transform="translate(12.000000, 5.000194)">
                    <rect id="矩形" fill="#000000" opacity="0" x="0" y="0" width="15.9998063" height="15.9998063"></rect>
                    <path d="M6.36700279,8.74217812 L10.4760446,11.5524922 C11.1729071,10.81807 12.3028064,10.7054564 13.1309158,11.2878893 C13.9590252,11.8703222 14.2350473,12.9717604 13.7794721,13.8758867 C13.3238968,14.7800129 12.2744223,15.2135539 11.3135715,14.8945573 C10.3527206,14.5755607 9.77091188,13.6004439 9.94652294,12.6033712 L5.79141035,9.76098257 C5.00873899,10.5146532 3.77283101,10.5230619 2.97997707,9.78011075 C2.18712313,9.03715956 2.11528241,7.80331267 2.81655439,6.97336602 C3.51782637,6.14341936 4.74635873,6.00833612 5.61120967,6.66607976 L9.9715994,3.51752497 C9.73521822,2.53258004 10.2569207,1.52328444 11.1971601,1.14653187 C12.1373995,0.7697793 13.211696,1.13956037 13.7208506,2.0152054 C14.2300051,2.89085042 14.0199674,4.00742342 13.2274392,4.63820987 C12.4349109,5.26899633 11.2996802,5.22314489 10.5606048,4.53049769 L6.30052097,7.60907162 C6.42986362,7.97297596 6.4531221,8.36614551 6.36758595,8.7427613 L6.36700279,8.74217812 Z M11.9573058,3.91758213 C12.4404227,3.91758213 12.8320664,3.5259385 12.8320664,3.04282159 C12.8320664,2.55970468 12.4404227,2.16806104 11.9573058,2.16806104 C11.4741889,2.16806104 11.0825453,2.55970468 11.0825453,3.04282159 C11.0825453,3.5259385 11.4741889,3.91758213 11.9573058,3.91758213 L11.9573058,3.91758213 Z M11.9573058,13.831535 C12.4404227,13.831535 12.8320664,13.4398913 12.8320664,12.9567744 C12.8320664,12.4736575 12.4404227,12.0820139 11.9573058,12.0820139 C11.4741889,12.0820139 11.0825453,12.4736575 11.0825453,12.9567744 C11.0825453,13.4398913 11.4741889,13.831535 11.9573058,13.831535 L11.9573058,13.831535 Z M4.37604778,9.16614539 C4.85916469,9.16614539 5.25080832,8.77450176 5.25080832,8.29138485 C5.25080832,7.80826795 4.85916469,7.41662432 4.37604778,7.41662432 C3.89293088,7.41662432 3.50128724,7.80826795 3.50128724,8.29138485 C3.50128724,8.77450176 3.89293088,9.16614539 4.37604778,9.16614539 Z" id="形状" fill="#787E84"></path>
                </g>
            </g>
        </g>
    </g>
</svg>