<?xml version="1.0" encoding="UTF-8"?>
<svg width="16px" height="16px" viewBox="0 0 16 16" version="1.1" xmlns="http://www.w3.org/2000/svg" xmlns:xlink="http://www.w3.org/1999/xlink">
    <title>微信</title>
    <g id="页面-1" stroke="none" stroke-width="1" fill="none" fill-rule="evenodd">
        <g id="榆林市农业农村局-职能介绍" transform="translate(-1481.000000, -284.000000)" fill-rule="nonzero">
            <g id="编组-26" transform="translate(1429.000000, 279.000000)">
                <g id="微信" transform="translate(52.000000, 5.000000)">
                    <rect id="矩形" fill="#000000" opacity="0" x="0" y="0" width="16" height="16"></rect>
                    <path d="M5.2716763,5.34104047 C4.99421966,5.34104047 4.716763,5.52601156 4.716763,5.8034682 C4.716763,6.08092484 4.99421964,6.26589595 5.2716763,6.26589595 C5.54913295,6.26589595 5.73410405,6.08092486 5.73410405,5.8034682 C5.73410405,5.51445086 5.54913295,5.34104047 5.2716763,5.34104047 Z M9.02890173,8.02312139 C8.84393064,8.02312139 8.67052023,8.21965319 8.67052023,8.39306358 C8.67052023,8.58959538 8.85549133,8.76300578 9.02890173,8.76300578 C9.30635837,8.76300578 9.49132948,8.57803469 9.49132948,8.39306358 C9.49132948,8.20809247 9.30635839,8.02312139 9.02890173,8.02312139 Z M7.83815028,6.26589595 C8.11560692,6.26589595 8.30057803,6.06936416 8.30057803,5.8034682 C8.30057803,5.52601156 8.11560694,5.34104047 7.83815028,5.34104047 C7.56069363,5.34104047 7.283237,5.52601156 7.283237,5.8034682 C7.283237,6.08092484 7.56069364,6.26589595 7.83815028,6.26589595 Z M11.0404624,8.02312139 C10.8554913,8.02312139 10.6820809,8.21965319 10.6820809,8.39306358 C10.6820809,8.58959538 10.867052,8.76300578 11.0404624,8.76300578 C11.3179191,8.76300578 11.5028902,8.57803469 11.5028902,8.39306358 C11.5028902,8.20809247 11.3179191,8.02312139 11.0404624,8.02312139 Z" id="形状" fill="#28C445"></path>
                    <path d="M7.97687861,0.0462427813 C3.57225433,0.0462427813 0,3.61849711 0,8.02312139 C0,12.4277457 3.57225433,16 7.97687861,16 C12.3815029,16 15.9537572,12.4277457 15.9537572,8.02312139 C15.9537572,3.61849711 12.3815029,0.0462427813 7.97687861,0.0462427813 L7.97687861,0.0462427813 Z M6.46242775,10.0693642 C6,10.0693642 5.63005781,9.97687861 5.19075144,9.87283237 L3.91907514,10.5202312 L4.27745664,9.39884394 C3.36416184,8.75144509 2.80924856,7.90751445 2.80924856,6.90173411 C2.80924856,5.13294798 4.46242775,3.74566473 6.46242775,3.74566473 C8.25433527,3.74566473 9.8381503,4.85549133 10.150289,6.34682081 C10.0346821,6.33526012 9.91907514,6.32369942 9.8034682,6.32369942 C8.06936416,6.34682081 6.70520231,7.65317919 6.70520231,9.2716763 C6.70520231,9.53757225 6.75144509,9.79190752 6.82080925,10.0462428 C6.70520231,10.0578035 6.57803469,10.0693642 6.46242775,10.0693642 L6.46242775,10.0693642 Z M11.8728324,11.3641618 L12.150289,12.2890173 L11.1560694,11.734104 C10.7976879,11.8265896 10.4277457,11.9190751 10.0578035,11.9190751 C8.31213873,11.9190751 6.93641619,10.716763 6.93641619,9.22543353 C6.9248555,7.74566475 8.30057803,6.54335259 10.0346821,6.54335259 C11.6878613,6.54335259 13.1445087,7.75722542 13.1445087,9.23699422 C13.1445087,10.0693642 12.6011561,10.8092485 11.8728324,11.3641618 L11.8728324,11.3641618 Z" id="形状" fill="#28C445"></path>
                </g>
            </g>
        </g>
    </g>
</svg>