<?xml version="1.0" encoding="UTF-8"?>
<svg width="16px" height="16px" viewBox="0 0 16 16" version="1.1" xmlns="http://www.w3.org/2000/svg" xmlns:xlink="http://www.w3.org/1999/xlink">
    <title>微博</title>
    <g id="页面-1" stroke="none" stroke-width="1" fill="none" fill-rule="evenodd">
        <g id="榆林市农业农村局-职能介绍" transform="translate(-1509.000000, -284.000000)" fill-rule="nonzero">
            <g id="编组-26" transform="translate(1429.000000, 279.000000)">
                <g id="微博" transform="translate(80.000000, 5.000000)">
                    <rect id="矩形" fill="#000000" opacity="0" x="0" y="0" width="16" height="16"></rect>
                    <path d="M7.01090909,7.53454545 C5.49818183,7.60727272 4.27636364,8.42181819 4.27636364,9.44 C4.27636364,10.4581818 5.49818183,11.2290909 7.01090909,11.1563636 C8.52363636,11.0836364 9.74545455,10.1236364 9.74545455,9.10545455 C9.73090909,8.10181819 8.50909091,7.46181819 7.01090909,7.53454545 Z M8.02909091,10.1090909 C7.56363636,10.72 6.64727272,11.0109091 5.76,10.5163636 C5.33818181,10.2836364 5.35272727,9.83272728 5.35272727,9.83272727 C5.35272727,9.83272725 5.17818181,8.39272727 6.69090909,8.21818181 C8.21818183,8.02909091 8.49454545,9.49818181 8.02909091,10.1090909 Z" id="形状" fill="#EA5D5C"></path>
                    <path d="M7.01090909,9.13454545 C6.90909091,9.20727272 6.89454545,9.33818181 6.95272727,9.42545455 C6.99636362,9.51272728 7.12727272,9.52727273 7.21454545,9.45454545 C7.30181819,9.38181819 7.34545455,9.25090909 7.28727273,9.16363636 C7.24363637,9.07636362 7.12727273,9.06181817 7.01090909,9.13454545 Z M6.29818181,9.33818181 C6.00727272,9.36727272 5.81818181,9.61454545 5.81818181,9.86181819 C5.81818181,10.0945455 6.05090908,10.2690909 6.32727273,10.24 C6.60363638,10.2109091 6.83636364,9.99272727 6.83636364,9.74545455 C6.83636364,9.49818183 6.61818183,9.30909091 6.29818181,9.33818181 Z" id="形状" fill="#EA5D5C"></path>
                    <path d="M8,0 C3.57818181,0 0,3.57818181 0,8 C0,12.4218182 3.57818181,16 8,16 C12.4218182,16 16,12.4218182 16,8 C16,3.57818181 12.4218182,0 8,0 Z M11.0836364,9.78909091 C10.4581818,11.1272727 8.40727273,11.7818182 6.89454545,11.6654545 C5.45454545,11.5490909 3.59272727,11.0690909 3.40363636,9.29454545 C3.40363636,9.29454545 3.30181817,8.49454545 4.07272727,7.46181819 C4.07272727,7.46181819 5.17818181,5.90545455 6.45818181,5.45454545 C7.75272727,5.01818181 7.89818181,5.76 7.89818181,6.21090909 C7.82545455,6.58909091 7.70909091,6.80727273 8.18909091,6.66181819 C8.18909091,6.66181819 9.45454545,6.06545455 9.97818181,6.58909091 C10.4,7.01090909 10.0509091,7.60727272 10.0509091,7.60727273 C10.0509091,7.60727275 9.87636364,7.79636364 10.24,7.86909091 C10.5745455,7.92727272 11.7090909,8.45090909 11.0836364,9.78909091 L11.0836364,9.78909091 Z M9.83272727,6.09454545 C9.70181817,6.09454545 9.58545455,5.97818181 9.58545455,5.84727273 C9.58545455,5.70181819 9.70181819,5.6 9.83272727,5.6 C9.83272727,5.6 11.3890909,5.30909091 11.2,6.99636364 L11.2,7.02545455 C11.1854545,7.14181819 11.0836364,7.24363636 10.9527273,7.24363636 C10.8072727,7.24363636 10.7054545,7.12727272 10.7054545,6.99636364 C10.7054545,6.96727273 10.9527273,5.84727273 9.83272727,6.09454545 L9.83272727,6.09454545 Z M12.4654545,7.70909091 C12.4218182,8 12.2763636,7.88363636 12.1163636,7.88363636 C11.9127273,7.88363636 11.7527273,7.62181817 11.7527273,7.41818181 C11.7527273,7.24363636 11.8254545,7.06909091 11.8254545,7.06909091 C11.84,6.99636364 12.0145455,6.53090909 11.7090909,5.84727273 C11.1563636,4.90181819 10.0509091,4.90181819 9.92,4.94545455 C9.78909091,5.00363636 9.58545455,5.03272728 9.58545455,5.03272727 C9.38181819,5.03272727 9.22181819,4.87272727 9.22181819,4.66909091 C9.22181819,4.49454545 9.33818183,4.36363636 9.48363636,4.32 C9.48363636,4.32 9.48363636,4.33454545 9.49818181,4.33454545 C9.51272727,4.33454545 9.52727272,4.34909091 9.52727273,4.34909091 C9.68727273,4.32 10.24,4.27636364 10.7636364,4.40727273 C11.7381818,4.64 13.0472727,5.71636364 12.4654545,7.70909091 L12.4654545,7.70909091 Z" id="形状" fill="#EA5D5C"></path>
                </g>
            </g>
        </g>
    </g>
</svg>